Coordinates
version=1
nRows=27
nColumns=38
inDegrees=no

Units are S.I. units (second, meters, Newtons, ...)
If the header above contains a line with 'inDegrees', this indicates whether rotational values are in degrees (yes) or radians (no).

endheader
time	pelvis_tilt	pelvis_list	pelvis_rotation	pelvis_tx	pelvis_ty	pelvis_tz	hip_flexion_r	hip_adduction_r	hip_rotation_r	knee_angle_r	ankle_angle_r	subtalar_angle_r	mtp_angle_r	hip_flexion_l	hip_adduction_l	hip_rotation_l	knee_angle_l	ankle_angle_l	subtalar_angle_l	mtp_angle_l	lumbar_extension	lumbar_bending	lumbar_rotation	arm_flex_r	arm_add_r	arm_rot_r	elbow_flex_r	pro_sup_r	wrist_flex_r	wrist_dev_r	arm_flex_l	arm_add_l	arm_rot_l	elbow_flex_l	pro_sup_l	wrist_flex_l	wrist_dev_l
0	-0.932511	1.37643	-0.758469	0.872512	2.25031	0.969597	0.38648	0.235039	0.17365	0.587321	0.293644	0	0	-0.129521	-0.0950104	-0.265754	0.180712	0.184142	0	0	-0.318163	0.18892	0.0459117	0.530962	-0.549009	0.301153	1.06762	0.729801	0	0	0.416939	-0.220454	-0.165621	1.10409	1.5708	0	0
0.01	-0.932474	1.37405	-0.751754	0.872848	2.24201	0.969265	0.395407	0.231994	0.157611	0.553666	0.292985	0	0	-0.14113	-0.0951396	-0.252577	0.176756	0.187631	0	0	-0.318977	0.19209	0.0419129	0.533925	-0.550406	0.302663	1.06666	0.729648	0	0	0.420729	-0.219489	-0.165195	1.10404	1.5708	0	0
0.02	-0.8634	1.36842	-0.822235	0.872848	2.23257	0.97095	0.384677	0.223154	0.147803	0.515279	0.292206	0	0	-0.192017	-0.0811101	-0.227592	0.135514	0.177733	0	0	-0.333677	0.185395	0.0453317	0.53454	-0.551096	0.300555	1.06609	0.729782	0	0	0.42349	-0.21716	-0.166144	1.10327	1.5708	0	0
0.03	-0.868224	1.36373	-0.807106	0.873702	2.22323	0.970747	0.387583	0.219248	0.121622	0.475795	0.288951	0	0	-0.204884	-0.0847245	-0.217156	0.133587	0.183367	0	0	-0.334233	0.193379	0.0393948	0.533998	-0.55446	0.299101	1.06819	0.730525	0	0	0.424879	-0.21356	-0.167289	1.10327	1.5708	0	0
0.04	-0.944205	1.36181	-0.708355	0.87587	2.21398	0.968456	0.406952	0.217328	0.0777273	0.437449	0.284569	0	0	-0.177127	-0.103387	-0.219367	0.171263	0.20572	0	0	-0.317836	0.215496	0.0221614	0.532618	-0.561024	0.298511	1.07177	0.740349	0	0	0.424098	-0.207763	-0.169258	1.10377	1.5708	0	0
0.05	-0.786328	1.41948	-0.959431	0.871857	2.19796	0.968822	0.433423	0.184037	0.145391	0.437108	0.304933	0	0	-0.236844	0.00334445	-0.241049	0.060762	0.144986	0	0	-0.284739	0.137693	0.0946498	0.504743	-0.561564	0.290315	1.06455	0.747781	0	0	0.394873	-0.192211	-0.183077	1.09137	1.5708	0	0
0.06	-0.875634	1.34843	-0.763939	0.876441	2.19419	0.969741	0.384174	0.205985	0.0286378	0.349068	0.270462	0	0	-0.248967	-0.0967928	-0.179746	0.12035	0.198083	0	0	-0.334976	0.219953	0.0153306	0.530794	-0.563887	0.295964	1.07499	0.737207	0	0	0.426508	-0.203228	-0.171633	1.10365	1.5708	0	0
0.07	-0.874612	1.34111	-0.75355	0.876174	2.18469	0.969257	0.377505	0.205791	-0.00198831	0.303668	0.260625	0	0	-0.264903	-0.104753	-0.17311	0.118845	0.206196	0	0	-0.337935	0.227809	0.00728517	0.531238	-0.564006	0.296713	1.07726	0.72935	0	0	0.428262	-0.204047	-0.171938	1.10522	1.5708	0	0
0.08	-0.874984	1.33657	-0.739802	0.877335	2.17437	0.968502	0.37266	0.200758	-0.039653	0.262081	0.255547	0	0	-0.280028	-0.109036	-0.162181	0.114129	0.212029	0	0	-0.336113	0.23755	-0.00381519	0.531219	-0.567057	0.298072	1.07907	0.733902	0	0	0.427242	-0.200673	-0.174627	1.1042	1.5708	0	0
0.09	-0.690361	1.41132	-0.999381	0.874423	2.16088	0.968566	0.415869	0.142834	0.0198055	0.271371	0.274698	0	0	-0.274262	0.000353573	-0.26764	0.0936879	0.182575	0	0	-0.297543	0.144018	0.0456999	0.509786	-0.557187	0.283667	1.06438	0.743889	0	0	0.406137	-0.189862	-0.189831	1.08822	1.5708	0	0
0.1	-0.69643	1.40808	-0.984161	0.874299	2.15064	0.967476	0.410723	0.140564	-0.00883021	0.23485	0.266671	0	0	-0.287688	-0.00372928	-0.263294	0.0939176	0.190606	0	0	-0.296763	0.149508	0.0390153	0.508794	-0.557411	0.282525	1.06572	0.741302	0	0	0.406708	-0.188636	-0.191368	1.08714	1.5708	0	0
0.11	-0.70798	1.3277	-0.851005	0.880136	2.14704	0.969536	0.327763	0.155142	-0.148279	0.147009	0.22717	0	0	-0.324138	-0.103196	-0.169679	0.14268	0.232771	0	0	-0.366761	0.229218	-0.0530015	0.53743	-0.555491	0.282396	1.07525	0.739376	0	0	0.4448	-0.204065	-0.174771	1.09871	1.5708	0	0
0.12	-0.706651	1.33075	-0.850552	0.879111	2.13651	0.967857	0.328963	0.152182	-0.166393	0.122527	0.214074	0	0	-0.334912	-0.101907	-0.170888	0.140793	0.238959	0	0	-0.360973	0.227025	-0.0535455	0.532596	-0.554662	0.277464	1.07631	0.744178	0	0	0.444619	-0.202577	-0.175435	1.09607	1.5708	0	0
0.13	-0.700914	1.40212	-0.96118	0.872522	2.11888	0.963488	0.393789	0.136524	-0.0739977	0.141363	0.21935	0	0	-0.339971	-0.0061495	-0.239464	0.067219	0.19723	0	0	-0.291104	0.158846	0.0280012	0.499082	-0.556675	0.271759	1.06998	0.751465	0	0	0.407598	-0.183903	-0.194414	1.08105	1.5708	0	0
0.14	-0.696881	1.40291	-0.954527	0.872498	2.10821	0.962395	0.388462	0.13099	-0.0934206	0.115338	0.197426	0	0	-0.342344	-0.0122203	-0.243306	0.0883127	0.213745	0	0	-0.283908	0.162952	0.0267715	0.487233	-0.560661	0.260313	1.07318	0.750208	0	0	0.339853	-0.236827	0.0919359	1.1494	0.659695	0	0
0.15	-0.669709	1.32751	-0.871341	0.876898	2.1042	0.964099	0.307459	0.144023	-0.216896	0.0555357	0.158261	0	0	-0.385214	-0.103925	-0.160493	0.129787	0.250877	0	0	-0.3558	0.226908	-0.0589706	0.515872	-0.55577	0.262492	1.07982	0.743402	0	0	0.387608	-0.245963	0.0969497	1.1753	0.587176	0	0
0.16	-0.638113	1.3263	-0.904238	0.874539	2.0939	0.962653	0.301159	0.140234	-0.223155	0.0516007	0.147548	0	0	-0.404696	-0.100546	-0.162276	0.129394	0.25458	0	0	-0.364299	0.217284	-0.0635106	0.523284	-0.547209	0.268252	1.07529	0.744049	0	0	0.446393	-0.19398	-0.191044	1.09645	1.5708	0	0
0.17	-0.592393	1.31926	-0.949736	0.871671	2.08349	0.961223	0.277711	0.136062	-0.203948	0.0333613	0.130988	0	0	-0.431244	-0.0995976	-0.170341	0.12926	0.260113	0	0	-0.379475	0.202413	-0.063987	0.523914	-0.539206	0.263949	1.06991	0.748763	0	0	0.492702	-0.178326	0.0336561	1.18287	0	0	0
0.18	-0.562104	1.34708	-0.996764	0.869712	2.07091	0.959328	0.314053	0.11478	-0.221029	0.0804959	0.149745	0	0	-0.429775	-0.0696035	-0.172309	0.121231	0.249994	0	0	-0.351515	0.181232	-0.0527569	0.512981	-0.537979	0.26178	1.0651	0.753248	0	0	0.440731	-0.193849	-0.196989	1.09538	1.5708	0	0
0.19	-0.544941	1.3528	-1.02057	0.868389	2.05837	0.957447	0.31836	0.106878	-0.223029	0.101839	0.158647	0	0	-0.442713	-0.0612478	-0.179167	0.120359	0.250832	0	0	-0.344675	0.174146	-0.0495973	0.510814	-0.538303	0.266885	1.06192	0.753176	0	0	0.432463	-0.17924	-0.307723	1.24028	1.5708	0	0
0.2	-0.542567	1.32941	-0.977611	0.872443	2.04751	0.957004	0.289404	0.101329	-0.283175	0.107305	0.162081	0	0	-0.463307	-0.0937399	-0.146301	0.138348	0.264217	0	0	-0.358091	0.20589	-0.081727	0.513432	-0.549348	0.271285	1.06628	0.749815	0	0	0.439706	-0.186352	-0.204257	1.09533	1.5708	0	0
0.21	-0.497763	1.40033	-1.11219	0.866407	2.02913	0.951848	0.363483	0.0747773	-0.188823	0.174467	0.190766	0	0	-0.44257	-0.0067026	-0.209817	0.113076	0.239297	0	0	-0.284754	0.142642	-0.0105318	0.481451	-0.552132	0.265442	1.05671	0.770925	0	0	0.404241	-0.169274	-0.226132	1.08391	1.5708	0	0
0.22	-0.495952	1.32968	-1.00087	0.871977	2.02293	0.953983	0.273769	0.0790384	-0.310341	0.151686	0.174557	0	0	-0.477769	-0.101501	-0.136808	0.17341	0.277794	0	0	-0.351733	0.20505	-0.0986059	0.502739	-0.553413	0.269393	1.06358	0.757307	0	0	0.442493	-0.187491	-0.150072	1.07342	1.5708	0	0
0.23	-0.45583	1.35846	-1.07144	0.866926	2.00843	0.951026	0.295173	0.0631325	-0.26671	0.191764	0.18546	0	0	-0.469068	-0.0711598	-0.165156	0.186646	0.275323	0	0	-0.325679	0.170614	-0.0779033	0.490239	-0.546838	0.270127	1.05614	0.755398	0	0	0.420892	-0.172311	-0.302179	1.23202	1.5708	0	0
0.24	-0.432599	1.32453	-1.03597	0.870292	1.99815	0.950763	0.242045	0.0597916	-0.332865	0.195054	0.18724	0	0	-0.48643	-0.116719	-0.133643	0.233606	0.297697	0	0	-0.353341	0.198456	-0.116863	0.488999	-0.557135	0.269738	1.06243	0.738324	0	0	0.490334	-0.193328	0.116388	0.970564	1.5708	0	0
0.25	-0.42326	1.35437	-1.06345	0.866969	1.98244	0.948113	0.260216	0.0464278	-0.315712	0.217385	0.198441	0	0	-0.467376	-0.0985167	-0.152984	0.256564	0.294453	0	0	-0.314951	0.180788	-0.104659	0.473328	-0.556571	0.272045	1.05647	0.742897	0	0	0.383586	-0.200262	-0.1006	1.15165	0.710208	0	0
0.26	-0.393048	1.34202	-1.0841	0.865274	1.96909	0.947669	0.227145	0.0474297	-0.340634	0.206487	0.183776	0	0	-0.495648	-0.116192	-0.128196	0.267936	0.296205	0	0	-0.326513	0.182076	-0.111509	0.471252	-0.55683	0.276454	1.05622	0.736951	0	0	0.416837	-0.193618	-0.135088	1.07906	1.5708	0	0
